<svg width="16" height="16" viewBox="0 0 16 16" fill="none" xmlns="http://www.w3.org/2000/svg">
<g id="Group">
<path id="Vector" d="M11.3335 2.00033H14.0002C14.177 2.00033 14.3465 2.07056 14.4716 2.19559C14.5966 2.32061 14.6668 2.49018 14.6668 2.66699V13.3337C14.6668 13.5105 14.5966 13.68 14.4716 13.8051C14.3465 13.9301 14.177 14.0003 14.0002 14.0003H2.00016C1.82335 14.0003 1.65378 13.9301 1.52876 13.8051C1.40373 13.68 1.3335 13.5105 1.3335 13.3337V2.66699C1.3335 2.49018 1.40373 2.32061 1.52876 2.19559C1.65378 2.07056 1.82335 2.00033 2.00016 2.00033H4.66683V0.666992H6.00016V2.00033H10.0002V0.666992H11.3335V2.00033ZM10.0002 3.33366H6.00016V4.66699H4.66683V3.33366H2.66683V6.00033H13.3335V3.33366H11.3335V4.66699H10.0002V3.33366ZM13.3335 7.33366H2.66683V12.667H13.3335V7.33366ZM4.00016 9.33366H5.3335V10.667H4.00016V9.33366ZM6.66683 9.33366H12.0002V10.667H6.66683V9.33366Z" fill="#757575"/>
</g>
</svg>
