<svg width="44" height="45" viewBox="0 0 44 45" fill="none" xmlns="http://www.w3.org/2000/svg">
<rect y="0.773438" width="44" height="44" rx="22" fill="white"/>
<rect y="0.773438" width="44" height="44" rx="22" fill="white"/>
<g clip-path="url(#clip0_801_4180)">
<path d="M23 30.7114C25.0173 30.4548 26.8611 29.4396 28.1568 27.8722C29.4525 26.3049 30.1027 24.303 29.9754 22.2734C29.848 20.2438 28.9527 18.3389 27.4713 16.9458C25.9898 15.5527 24.0336 14.776 22 14.7734C19.964 14.7719 18.0039 15.5468 16.5193 16.9401C15.0347 18.3335 14.1372 20.2404 14.0097 22.2725C13.8822 24.3045 14.5343 26.3087 15.8331 27.8767C17.132 29.4447 18.9797 30.4584 21 30.7114V24.7734H19V22.7734H21V21.1194C21 19.7824 21.14 19.2974 21.4 18.8084C21.6561 18.3246 22.052 17.9291 22.536 17.6734C22.918 17.4684 23.393 17.3454 24.223 17.2924C24.552 17.2714 24.978 17.2974 25.501 17.3724V19.2724H25C24.083 19.2724 23.704 19.3154 23.478 19.4364C23.3431 19.5058 23.2334 19.6156 23.164 19.7504C23.044 19.9764 23 20.2004 23 21.1184V22.7734H25.5L25 24.7734H23V30.7114ZM22 32.7734C16.477 32.7734 12 28.2964 12 22.7734C12 17.2504 16.477 12.7734 22 12.7734C27.523 12.7734 32 17.2504 32 22.7734C32 28.2964 27.523 32.7734 22 32.7734Z" fill="#037DAE"/>
</g>
<defs>
<clipPath id="clip0_801_4180">
<rect width="24" height="24" fill="white" transform="translate(10 10.7734)"/>
</clipPath>
</defs>
</svg>
