<svg width="44" height="45" viewBox="0 0 44 45" fill="none" xmlns="http://www.w3.org/2000/svg">
<rect y="0.773438" width="44" height="44" rx="22" fill="white"/>
<rect y="0.773438" width="44" height="44" rx="22" fill="white"/>
<g clip-path="url(#clip0_801_4182)">
<path d="M22 19.7734C21.2044 19.7734 20.4413 20.0895 19.8787 20.6521C19.3161 21.2147 19 21.9778 19 22.7734C19 23.5691 19.3161 24.3321 19.8787 24.8948C20.4413 25.4574 21.2044 25.7734 22 25.7734C22.7956 25.7734 23.5587 25.4574 24.1213 24.8948C24.6839 24.3321 25 23.5691 25 22.7734C25 21.9778 24.6839 21.2147 24.1213 20.6521C23.5587 20.0895 22.7956 19.7734 22 19.7734ZM22 17.7734C23.3261 17.7734 24.5979 18.3002 25.5355 19.2379C26.4732 20.1756 27 21.4474 27 22.7734C27 24.0995 26.4732 25.3713 25.5355 26.309C24.5979 27.2467 23.3261 27.7734 22 27.7734C20.6739 27.7734 19.4021 27.2467 18.4645 26.309C17.5268 25.3713 17 24.0995 17 22.7734C17 21.4474 17.5268 20.1756 18.4645 19.2379C19.4021 18.3002 20.6739 17.7734 22 17.7734ZM28.5 17.5234C28.5 17.855 28.3683 18.1729 28.1339 18.4073C27.8995 18.6417 27.5815 18.7734 27.25 18.7734C26.9185 18.7734 26.6005 18.6417 26.3661 18.4073C26.1317 18.1729 26 17.855 26 17.5234C26 17.1919 26.1317 16.874 26.3661 16.6396C26.6005 16.4051 26.9185 16.2734 27.25 16.2734C27.5815 16.2734 27.8995 16.4051 28.1339 16.6396C28.3683 16.874 28.5 17.1919 28.5 17.5234ZM22 14.7734C19.526 14.7734 19.122 14.7804 17.971 14.8314C17.187 14.8684 16.661 14.9734 16.173 15.1634C15.739 15.3314 15.426 15.5324 15.093 15.8664C14.78 16.1688 14.5394 16.538 14.389 16.9464C14.199 17.4364 14.094 17.9614 14.058 18.7444C14.006 19.8484 14 20.2344 14 22.7734C14 25.2474 14.007 25.6514 14.058 26.8024C14.095 27.5854 14.2 28.1124 14.389 28.5994C14.559 29.0344 14.759 29.3474 15.091 29.6794C15.428 30.0154 15.741 30.2164 16.171 30.3824C16.665 30.5734 17.191 30.6794 17.971 30.7154C19.075 30.7674 19.461 30.7734 22 30.7734C24.474 30.7734 24.878 30.7664 26.029 30.7154C26.811 30.6784 27.338 30.5734 27.826 30.3844C28.259 30.2154 28.574 30.0144 28.906 29.6824C29.243 29.3454 29.444 29.0324 29.61 28.6024C29.8 28.1094 29.906 27.5824 29.942 26.8024C29.994 25.6984 30 25.3124 30 22.7734C30 20.2994 29.993 19.8954 29.942 18.7444C29.905 17.9624 29.8 17.4344 29.61 16.9464C29.4593 16.5384 29.2191 16.1694 28.907 15.8664C28.6047 15.5533 28.2355 15.3126 27.827 15.1624C27.337 14.9724 26.811 14.8674 26.029 14.8314C24.925 14.7794 24.539 14.7734 22 14.7734ZM22 12.7734C24.717 12.7734 25.056 12.7834 26.122 12.8334C27.187 12.8834 27.912 13.0504 28.55 13.2984C29.21 13.5524 29.766 13.8964 30.322 14.4514C30.8305 14.9513 31.224 15.556 31.475 16.2234C31.722 16.8604 31.89 17.5864 31.94 18.6514C31.987 19.7174 32 20.0564 32 22.7734C32 25.4904 31.99 25.8294 31.94 26.8954C31.89 27.9604 31.722 28.6854 31.475 29.3234C31.2247 29.9912 30.8311 30.5961 30.322 31.0954C29.822 31.6038 29.2173 31.9972 28.55 32.2484C27.913 32.4954 27.187 32.6634 26.122 32.7134C25.056 32.7604 24.717 32.7734 22 32.7734C19.283 32.7734 18.944 32.7634 17.878 32.7134C16.813 32.6634 16.088 32.4954 15.45 32.2484C14.7823 31.9979 14.1775 31.6044 13.678 31.0954C13.1694 30.5956 12.7759 29.9909 12.525 29.3234C12.277 28.6864 12.11 27.9604 12.06 26.8954C12.013 25.8294 12 25.4904 12 22.7734C12 20.0564 12.01 19.7174 12.06 18.6514C12.11 17.5854 12.277 16.8614 12.525 16.2234C12.7752 15.5556 13.1688 14.9508 13.678 14.4514C14.1777 13.9427 14.7824 13.5492 15.45 13.2984C16.088 13.0504 16.812 12.8834 17.878 12.8334C18.944 12.7864 19.283 12.7734 22 12.7734Z" fill="#037DAE"/>
</g>
<defs>
<clipPath id="clip0_801_4182">
<rect width="24" height="24" fill="white" transform="translate(10 10.7734)"/>
</clipPath>
</defs>
</svg>
