<svg width="20" height="20" viewBox="0 0 20 20" fill="none" xmlns="http://www.w3.org/2000/svg">
<g clip-path="url(#clip0_1555_3965)">
<path d="M15.3033 14.4703L10 19.7736L4.69667 14.4703C3.64779 13.4214 2.93349 12.085 2.64411 10.6301C2.35473 9.17528 2.50326 7.66729 3.07092 6.29685C3.63858 4.9264 4.59987 3.75507 5.83324 2.93096C7.0666 2.10686 8.51665 1.66699 10 1.66699C11.4834 1.66699 12.9334 2.10686 14.1668 2.93096C15.4001 3.75507 16.3614 4.9264 16.9291 6.29685C17.4968 7.66729 17.6453 9.17528 17.3559 10.6301C17.0665 12.085 16.3522 13.4214 15.3033 14.4703ZM10 12.5003C10.8841 12.5003 11.7319 12.1491 12.357 11.524C12.9821 10.8988 13.3333 10.051 13.3333 9.16693C13.3333 8.28287 12.9821 7.43503 12.357 6.80991C11.7319 6.18478 10.8841 5.83359 10 5.83359C9.11595 5.83359 8.2681 6.18478 7.64298 6.80991C7.01786 7.43503 6.66667 8.28287 6.66667 9.16693C6.66667 10.051 7.01786 10.8988 7.64298 11.524C8.2681 12.1491 9.11595 12.5003 10 12.5003ZM10 10.8336C9.55798 10.8336 9.13405 10.658 8.82149 10.3454C8.50893 10.0329 8.33334 9.60896 8.33334 9.16693C8.33334 8.7249 8.50893 8.30098 8.82149 7.98842C9.13405 7.67586 9.55798 7.50026 10 7.50026C10.442 7.50026 10.866 7.67586 11.1785 7.98842C11.4911 8.30098 11.6667 8.7249 11.6667 9.16693C11.6667 9.60896 11.4911 10.0329 11.1785 10.3454C10.866 10.658 10.442 10.8336 10 10.8336Z" fill="white"/>
</g>
<defs>
<clipPath id="clip0_1555_3965">
<rect width="20" height="20" fill="white"/>
</clipPath>
</defs>
</svg>
