<svg width="44" height="45" viewBox="0 0 44 45" fill="none" xmlns="http://www.w3.org/2000/svg">
<rect y="0.773438" width="44" height="44" rx="22" fill="white"/>
<rect y="0.773438" width="44" height="44" rx="22" fill="white"/>
<g clip-path="url(#clip0_801_4184)">
<path d="M29.606 17.7684C29.53 17.4704 29.314 17.2454 29.067 17.1764C28.63 17.0534 26.5 16.7734 22 16.7734C17.5 16.7734 15.372 17.0534 14.931 17.1764C14.687 17.2444 14.471 17.4694 14.394 17.7684C14.285 18.1924 14 19.9694 14 22.7734C14 25.5774 14.285 27.3534 14.394 27.7794C14.47 28.0764 14.686 28.3014 14.932 28.3694C15.372 28.4934 17.5 28.7734 22 28.7734C26.5 28.7734 28.629 28.4934 29.069 28.3704C29.313 28.3024 29.529 28.0774 29.606 27.7784C29.715 27.3544 30 25.5734 30 22.7734C30 19.9734 29.715 18.1934 29.606 17.7684ZM31.543 17.2714C32 19.0534 32 22.7734 32 22.7734C32 22.7734 32 26.4934 31.543 28.2754C31.289 29.2604 30.546 30.0354 29.605 30.2974C27.896 30.7734 22 30.7734 22 30.7734C22 30.7734 16.107 30.7734 14.395 30.2974C13.45 30.0314 12.708 29.2574 12.457 28.2754C12 26.4934 12 22.7734 12 22.7734C12 22.7734 12 19.0534 12.457 17.2714C12.711 16.2864 13.454 15.5114 14.395 15.2494C16.107 14.7734 22 14.7734 22 14.7734C22 14.7734 27.896 14.7734 29.605 15.2494C30.55 15.5154 31.292 16.2894 31.543 17.2714ZM20 26.2734V19.2734L26 22.7734L20 26.2734Z" fill="#037DAE"/>
</g>
<defs>
<clipPath id="clip0_801_4184">
<rect width="24" height="24" fill="white" transform="translate(10 10.7734)"/>
</clipPath>
</defs>
</svg>
