<svg width="83" height="23" viewBox="0 0 83 23" fill="none" xmlns="http://www.w3.org/2000/svg">
<path d="M0 0H83L72.5 11.5L83 23H0V0Z" fill="url(#paint0_linear_933_6688)"/>
<path d="M8.72 16V8.6H11.95C12.4233 8.6 12.8267 8.68333 13.16 8.85C13.4933 9.01667 13.7467 9.24 13.92 9.52C14.1 9.8 14.19 10.1067 14.19 10.44C14.19 10.78 14.1267 11.06 14 11.28C13.88 11.5 13.7333 11.6733 13.56 11.8C13.3933 11.92 13.24 12.0033 13.1 12.05V12.12C13.2733 12.1667 13.4667 12.2567 13.68 12.39C13.9 12.5233 14.09 12.7133 14.25 12.96C14.41 13.2 14.49 13.5133 14.49 13.9C14.49 14.2467 14.4067 14.5833 14.24 14.91C14.0733 15.23 13.81 15.4933 13.45 15.7C13.09 15.9 12.6133 16 12.02 16H8.72ZM11.77 9.75H10.08V11.68H11.77C12.1567 11.68 12.4367 11.5833 12.61 11.39C12.7833 11.1967 12.87 10.97 12.87 10.71C12.87 10.4567 12.7833 10.2333 12.61 10.04C12.4367 9.84667 12.1567 9.75 11.77 9.75ZM11.87 12.72H10.08V14.85H11.87C12.31 14.85 12.63 14.7433 12.83 14.53C13.03 14.3167 13.13 14.0667 13.13 13.78C13.13 13.5 13.03 13.2533 12.83 13.04C12.63 12.8267 12.31 12.72 11.87 12.72ZM19.2238 7.84L18.2138 7.83L19.0338 6.04H20.3038L19.2238 7.84ZM15.2738 16L17.8238 8.6H19.5938L22.1538 16H20.7338L20.2038 14.44H17.2238L16.6938 16H15.2738ZM17.6138 13.26H19.8138L18.7138 9.99L17.6138 13.26ZM23.222 16V8.6H24.462L27.862 13.62V8.6H29.212V16H27.972L24.572 11.07V16H23.222ZM36.2983 16.1C35.6983 16.1 35.1716 15.9933 34.7183 15.78C34.2716 15.56 33.8949 15.27 33.5883 14.91C33.2883 14.5433 33.0616 14.1367 32.9083 13.69C32.7616 13.2367 32.6883 12.7733 32.6883 12.3C32.6883 11.8267 32.7616 11.3633 32.9083 10.91C33.0616 10.4567 33.2883 10.05 33.5883 9.69C33.8949 9.32333 34.2716 9.03333 34.7183 8.82C35.1716 8.60667 35.6983 8.5 36.2983 8.5C36.7983 8.5 37.2283 8.56333 37.5883 8.69C37.9483 8.81667 38.2483 8.98 38.4883 9.18C38.7283 9.38 38.9183 9.59333 39.0583 9.82C39.2049 10.0467 39.3149 10.26 39.3883 10.46C39.4616 10.66 39.5083 10.8233 39.5283 10.95C39.5549 11.0767 39.5683 11.14 39.5683 11.14H38.2183C38.2183 11.14 38.2049 11.0933 38.1783 11C38.1583 10.9067 38.1116 10.79 38.0383 10.65C37.9716 10.5033 37.8683 10.36 37.7283 10.22C37.5883 10.08 37.4016 9.96333 37.1683 9.87C36.9416 9.77667 36.6583 9.73 36.3183 9.73C35.9449 9.73 35.6183 9.80333 35.3383 9.95C35.0583 10.09 34.8249 10.2833 34.6383 10.53C34.4516 10.7767 34.3116 11.0533 34.2183 11.36C34.1316 11.6667 34.0883 11.98 34.0883 12.3C34.0883 12.62 34.1316 12.9333 34.2183 13.24C34.3116 13.54 34.4516 13.8133 34.6383 14.06C34.8249 14.3067 35.0583 14.5033 35.3383 14.65C35.6183 14.7967 35.9449 14.87 36.3183 14.87C36.6583 14.87 36.9416 14.8233 37.1683 14.73C37.4016 14.63 37.5883 14.51 37.7283 14.37C37.8683 14.23 37.9716 14.09 38.0383 13.95C38.1116 13.81 38.1583 13.6933 38.1783 13.6C38.2049 13.5 38.2183 13.45 38.2183 13.45H39.5683C39.5683 13.45 39.5549 13.5133 39.5283 13.64C39.5083 13.7667 39.4616 13.9333 39.3883 14.14C39.3149 14.34 39.2049 14.5533 39.0583 14.78C38.9183 15 38.7283 15.2133 38.4883 15.42C38.2483 15.62 37.9483 15.7833 37.5883 15.91C37.2283 16.0367 36.7983 16.1 36.2983 16.1ZM40.7415 16V8.6H42.1015V11.64H45.1915V8.6H46.5515V16H45.1915V12.82H42.1015V16H40.7415ZM47.6176 16L50.1676 8.6H51.9376L54.4976 16H53.0776L52.5476 14.44H49.5676L49.0376 16H47.6176ZM49.9576 13.26H52.1576L51.0576 9.99L49.9576 13.26ZM51.0576 18.4C50.8376 18.4 50.6576 18.3267 50.5176 18.18C50.3776 18.0333 50.3076 17.86 50.3076 17.66C50.3076 17.4533 50.3776 17.2767 50.5176 17.13C50.6576 16.9833 50.8376 16.91 51.0576 16.91C51.2709 16.91 51.4476 16.9833 51.5876 17.13C51.7342 17.2767 51.8076 17.4533 51.8076 17.66C51.8076 17.86 51.7342 18.0333 51.5876 18.18C51.4476 18.3267 51.2709 18.4 51.0576 18.4ZM56.7577 16V13.43L54.1577 8.6H55.6377L57.4277 12.05L59.2177 8.6H60.7077L58.1077 13.43V16H56.7577Z" fill="white"/>
<defs>
<linearGradient id="paint0_linear_933_6688" x1="0" y1="11.5052" x2="83" y2="11.5052" gradientUnits="userSpaceOnUse">
<stop stop-color="#024B80"/>
<stop offset="1" stop-color="#1BABE2"/>
</linearGradient>
</defs>
</svg>
